<?xml version="1.0" standalone="no"?>
<!DOCTYPE svg PUBLIC "-//W3C//DTD SVG 20010904//EN"
 "http://www.w3.org/TR/2001/REC-SVG-20010904/DTD/svg10.dtd">
<svg version="1.0" xmlns="http://www.w3.org/2000/svg"
 width="197.000000pt" height="251.000000pt" viewBox="0 0 197.000000 251.000000"
 preserveAspectRatio="xMidYMid meet">

<g transform="translate(0.000000,251.000000) scale(0.100000,-0.100000)"
fill="#000000" stroke="none">
<path d="M648 1840 c-28 -29 -30 -34 -26 -93 7 -102 39 -155 180 -297 183
-183 162 -170 203 -130 19 18 32 37 29 42 -3 5 -1 7 5 6 6 -2 58 44 116 102
120 120 157 180 163 272 5 67 -10 98 -57 118 -64 26 -121 -26 -121 -110 0 -80
-48 -145 -125 -170 -100 -33 -215 51 -215 157 0 58 -17 97 -49 116 -42 25 -68
21 -103 -13z m88 -15 c16 -10 23 -29 27 -75 15 -137 104 -219 226 -207 119 13
186 102 191 259 0 4 11 15 24 23 19 13 28 14 50 4 34 -16 41 -47 27 -116 -15
-79 -52 -130 -191 -268 l-120 -120 -130 130 c-138 137 -172 188 -185 277 -9
57 0 87 28 98 30 12 30 12 53 -5z"/>
<path d="M925 1856 c-47 -21 -67 -51 -73 -104 -4 -44 -1 -53 26 -83 28 -32 35
-34 92 -34 55 0 64 3 85 28 13 15 27 43 31 63 17 90 -79 168 -161 130z m108
-57 c34 -37 34 -69 1 -108 -64 -77 -182 -3 -144 90 15 36 56 61 90 53 14 -2
37 -18 53 -35z"/>
<path d="M353 1548 c-29 -33 -35 -57 -22 -95 13 -41 52 -63 114 -63 75 0 129
-39 160 -114 41 -96 -43 -226 -145 -226 -70 0 -110 -18 -126 -57 -13 -29 -13
-41 -3 -65 19 -46 50 -61 117 -56 99 7 151 40 307 197 77 77 141 144 143 149
2 8 -243 256 -291 293 -76 59 -216 79 -254 37z m192 -38 c34 -15 87 -60 184
-155 l136 -135 -136 -135 c-145 -143 -188 -171 -277 -182 -65 -7 -92 7 -92 51
0 43 13 53 82 58 83 7 145 47 181 117 29 59 33 99 15 152 -28 83 -94 131 -198
144 -30 3 -60 11 -67 17 -19 16 -16 75 5 88 24 15 110 4 167 -20z"/>
<path d="M1413 1551 c-28 -9 -67 -30 -87 -45 -43 -33 -286 -278 -286 -289 0
-4 64 -71 142 -149 162 -161 209 -190 318 -196 60 -4 67 -2 89 22 33 35 32 89
-1 122 -16 17 -42 26 -90 33 -81 11 -120 33 -146 80 -28 52 -34 86 -22 131 21
78 84 128 168 134 26 2 52 4 59 5 27 3 53 45 53 87 0 34 -5 47 -26 63 -33 26
-99 27 -171 2z m151 -27 c20 -19 21 -68 1 -84 -8 -6 -43 -15 -77 -20 -83 -10
-111 -24 -152 -77 -57 -73 -60 -164 -7 -238 37 -52 93 -83 167 -91 72 -8 84
-17 84 -59 0 -47 -20 -59 -86 -52 -95 10 -146 43 -289 187 l-129 131 129 129
c70 71 148 139 172 151 73 38 162 49 187 23z"/>
<path d="M385 1322 c-47 -29 -59 -50 -59 -102 0 -53 17 -81 66 -106 35 -18 72
-18 108 1 40 21 60 53 60 98 0 53 -25 96 -65 113 -46 19 -74 18 -110 -4z m108
-32 c88 -69 9 -198 -91 -146 -33 17 -42 33 -42 80 0 72 77 110 133 66z"/>
<path d="M1428 1315 c-45 -30 -62 -74 -48 -125 16 -58 52 -85 115 -85 43 0 59
5 79 24 59 56 51 150 -16 191 -44 27 -86 25 -130 -5z m105 -17 c34 -18 46 -39
47 -81 0 -46 -36 -87 -75 -87 -33 0 -81 24 -89 45 -32 84 43 163 117 123z"/>
<path d="M951 1141 c-7 -5 -10 -14 -7 -20 4 -6 3 -10 -3 -9 -6 2 -67 -53 -136
-122 -97 -96 -133 -139 -156 -186 -55 -115 -32 -221 48 -226 68 -5 98 32 106
130 5 59 26 95 77 129 49 34 95 39 148 17 64 -27 104 -80 109 -146 6 -73 21
-106 54 -123 42 -22 67 -18 101 16 29 29 30 33 26 93 -9 106 -33 145 -195 308
-81 81 -150 148 -153 148 -3 0 -11 -4 -19 -9z m151 -159 c137 -139 174 -196
184 -284 6 -58 -4 -81 -42 -92 -38 -11 -67 23 -71 84 -4 75 -36 134 -91 172
-39 27 -55 32 -106 32 -118 1 -201 -77 -211 -199 -4 -45 -10 -64 -26 -77 -26
-22 -38 -22 -68 -2 -21 15 -23 22 -18 73 9 100 36 144 180 288 72 73 134 133
137 133 3 0 63 -58 132 -128z"/>
<path d="M890 781 c-51 -50 -52 -126 -4 -175 94 -93 251 24 190 142 -34 66
-135 84 -186 33z m142 -28 c44 -40 29 -115 -28 -139 -108 -45 -176 108 -71
159 33 16 67 9 99 -20z"/>
</g>
</svg>
